<?xml version="1.0" encoding="UTF-8"?>
<svg version="1.1" xmlns="http://www.w3.org/2000/svg" width="402" height="270">
<path d="M0 0 C3.94418852 2.12466316 7.88212625 2.42629472 12.2890625 2.96875 C25.54760648 4.78971699 38.03912986 8.27491789 50.7265625 12.46875 C51.37496094 12.67790039 52.02335938 12.88705078 52.69140625 13.10253906 C54.5234877 13.70105647 56.34415517 14.33417705 58.1640625 14.96875 C59.21464844 15.3296875 60.26523438 15.690625 61.34765625 16.0625 C63.7265625 17.46875 63.7265625 17.46875 64.63671875 19.9375 C64.7265625 22.46875 64.7265625 22.46875 63.7265625 25.46875 C63.54903094 27.32015053 63.40764052 29.17514099 63.2890625 31.03125 C62.86612099 36.63181424 61.97337196 41.99731431 60.7265625 47.46875 C59.76556641 47.55962891 59.76556641 47.55962891 58.78515625 47.65234375 C46.17417446 48.87397388 33.97530171 50.33307407 22.7265625 56.46875 C22.01628906 56.63117188 21.30601562 56.79359375 20.57421875 56.9609375 C19.96449219 57.12851563 19.35476562 57.29609375 18.7265625 57.46875 C18.3965625 58.12875 18.0665625 58.78875 17.7265625 59.46875 C16.41740971 60.50020371 15.08574107 61.50417166 13.7265625 62.46875 C14.190625 64.0775 14.190625 64.0775 14.6640625 65.71875 C16.92917489 73.71326432 17.98744332 80.52035301 14.7265625 88.46875 C15.7165625 88.13875 16.7065625 87.80875 17.7265625 87.46875 C17.7265625 88.12875 17.7265625 88.78875 17.7265625 89.46875 C30.43296509 89.11725892 41.05440446 86.57531914 52.7265625 81.46875 C55.07821094 85.85240534 57.42132482 90.24038513 59.75195312 94.63525391 C60.54550865 96.12814018 61.34596055 97.61735903 62.1484375 99.10546875 C63.97429829 102.57857351 64.7265625 104.45292447 64.7265625 108.46875 C47.04088889 114.82695028 27.57658702 118.27813573 9.7265625 110.46875 C7.39580214 109.27766291 5.72733773 108.1837002 3.7265625 106.46875 C3.7265625 105.80875 3.7265625 105.14875 3.7265625 104.46875 C1.7465625 103.47875 1.7465625 103.47875 -0.2734375 102.46875 C-0.2734375 101.80875 -0.2734375 101.14875 -0.2734375 100.46875 C-0.9334375 100.46875 -1.5934375 100.46875 -2.2734375 100.46875 C-2.6034375 101.12875 -2.9334375 101.78875 -3.2734375 102.46875 C-5.12890625 103.03125 -5.12890625 103.03125 -7.4609375 103.46875 C-10.08160538 103.96877522 -12.41261645 104.52255417 -14.90820312 105.48730469 C-18.8684808 106.64228991 -22.55120966 106.75642459 -26.63671875 106.734375 C-27.42813766 106.73628845 -28.21955658 106.7382019 -29.03495789 106.74017334 C-30.70324015 106.74152896 -32.37153318 106.73787622 -34.03979492 106.72949219 C-36.56779225 106.71882655 -39.09507206 106.72938638 -41.62304688 106.7421875 C-43.25260571 106.74086496 -44.88216411 106.73830062 -46.51171875 106.734375 C-47.25577469 106.73842346 -47.99983063 106.74247192 -48.76643372 106.74664307 C-53.44709269 106.70570026 -57.70408244 106.07810499 -62.24841309 104.95184326 C-66.41597244 103.95762323 -70.69556823 103.56495803 -74.94140625 103.03125 C-78.21622525 102.47840834 -81.15755236 101.60351849 -84.2734375 100.46875 C-83.49233252 75.69248113 -83.49233252 75.69248113 -81.2734375 64.46875 C-76.29476321 65.19292081 -71.84787897 67.10499144 -67.2109375 68.96875 C-65.61678182 69.60641227 -64.02175723 70.24190745 -62.42578125 70.875 C-61.3737854 71.29749023 -61.3737854 71.29749023 -60.30053711 71.72851562 C-55.90805565 73.33251464 -51.89454696 73.71570179 -47.2109375 73.84375 C-45.36822266 73.91722656 -45.36822266 73.91722656 -43.48828125 73.9921875 C-40.12903828 73.79865408 -40.12903828 73.79865408 -38.29296875 71.171875 C-36.86080481 67.37472004 -37.89232057 65.1977657 -39.2734375 61.46875 C-39.6034375 60.47875 -39.9334375 59.48875 -40.2734375 58.46875 C-42.99779387 57.39289941 -42.99779387 57.39289941 -46.2734375 56.46875 C-54.76798955 53.03825782 -63.10150266 49.2374802 -70.2734375 43.46875 C-70.2734375 42.80875 -70.2734375 42.14875 -70.2734375 41.46875 C-70.9334375 41.46875 -71.5934375 41.46875 -72.2734375 41.46875 C-77.30807422 33.23869809 -79.22067881 25.37571791 -77.8984375 15.734375 C-76.17980401 8.8168752 -72.76950659 2.29122411 -66.59570312 -1.58447266 C-48.13411951 -11.74606008 -18.05960718 -12.16385913 0 0 Z M-29.2734375 24.46875 C-29.2734375 25.12875 -29.2734375 25.78875 -29.2734375 26.46875 C-30.5934375 26.79875 -31.9134375 27.12875 -33.2734375 27.46875 C-34.2087084 31.36571208 -34.55066703 33.75378964 -33.0859375 37.53125 C-27.81869404 44.2626086 -17.50263207 46.89084015 -9.7734375 49.90625 C-8.75008301 50.31327148 -8.75008301 50.31327148 -7.70605469 50.72851562 C-5.08016814 51.71305986 -2.83261019 52.49574454 -0.0078125 52.359375 C2.26070063 51.19446285 3.40422097 49.78484054 4.9765625 47.78125 C8.84914674 43.13080326 13.2808213 39.1916206 18.7265625 36.46875 C18.7265625 35.80875 18.7265625 35.14875 18.7265625 34.46875 C20.0465625 34.46875 21.3665625 34.46875 22.7265625 34.46875 C22.7265625 33.80875 22.7265625 33.14875 22.7265625 32.46875 C23.4690625 32.345 24.2115625 32.22125 24.9765625 32.09375 C27.52797735 31.51388299 29.4533198 30.73166261 31.7265625 29.46875 C31.7265625 28.80875 31.7265625 28.14875 31.7265625 27.46875 C29.31815203 27.70506585 26.91062133 27.94605798 24.50390625 28.19921875 C22.83242463 28.36143005 21.15767117 28.49744191 19.48046875 28.58203125 C13.55220885 28.96274519 8.800755 30.9299396 3.42578125 33.41015625 C0.40709854 34.59403905 -2.06838198 34.46875 -5.2734375 34.46875 C-5.52609375 33.86289063 -5.77875 33.25703125 -6.0390625 32.6328125 C-8.59874711 28.14526417 -13.83266043 26.06201114 -18.4609375 24.15625 C-22.52935557 23.1617478 -25.29976363 23.14419204 -29.2734375 24.46875 Z " fill="#FDFDFC" transform="translate(179.2734375,93.53125)"/>
<path d="M0 0 C1.875 0.25 1.875 0.25 4 1 C4.6837045 2.32467746 5.34964186 3.65863633 6 5 C7.32407669 5.68486725 8.65909241 6.34870203 10 7 C11.70680947 8.62553283 13.37660195 10.29115995 15 12 C15.66 12.66 16.32 13.32 17 14 C16.34 14 15.68 14 15 14 C15 14.66 15 15.32 15 16 C13.54588192 17.22278111 12.08788691 18.44157582 10.6015625 19.625 C8.40798642 21.50826532 6.71889197 23.68610696 5 26 C0.1061504 25.58052718 -1.73093997 23.51423954 -5 20 C-5.928125 19.319375 -6.85625 18.63875 -7.8125 17.9375 C-8.534375 17.298125 -9.25625 16.65875 -10 16 C-10 14.68 -10 13.36 -10 12 C-9.34 12 -8.68 12 -8 12 C-8 11.34 -8 10.68 -8 10 C-6.125 7.875 -6.125 7.875 -4 6 C-3.34 6 -2.68 6 -2 6 C-2 5.34 -2 4.68 -2 4 C-1.34 4 -0.68 4 0 4 C0 2.68 0 1.36 0 0 Z " fill="#FBFAF9" transform="translate(209,70)"/>
<path d="M0 0 C2.625 0.9375 2.625 0.9375 5 2 C4.01 2.495 4.01 2.495 3 3 C2.67 3.66 2.34 4.32 2 5 C0.68 5 -0.64 5 -2 5 C-1.34 4.67 -0.68 4.34 0 4 C-0.66 3.67 -1.32 3.34 -2 3 C-2 2.34 -2 1.68 -2 1 C-1.34 0.67 -0.68 0.34 0 0 Z " fill="#F9F7F4" transform="translate(195,148)"/>
<path d="M0 0 C2.475 0.99 2.475 0.99 5 2 C4.01 2.99 3.02 3.98 2 5 C0.68 4.34 -0.64 3.68 -2 3 C-1.34 2.01 -0.68 1.02 0 0 Z " fill="#F3EFED" transform="translate(205,76)"/>
</svg>
