<svg width="278" height="50" viewBox="0 0 278 50" fill="none" xmlns="http://www.w3.org/2000/svg">
<path d="M12.9 37.35C10.6 37.35 8.53333 36.95 6.7 36.15C4.9 35.3167 3.48333 34.1833 2.45 32.75C1.41667 31.2833 0.883333 29.6 0.85 27.7H5.7C5.86667 29.3333 6.53333 30.7167 7.7 31.85C8.9 32.95 10.6333 33.5 12.9 33.5C15.0667 33.5 16.7667 32.9667 18 31.9C19.2667 30.8 19.9 29.4 19.9 27.7C19.9 26.3667 19.5333 25.2833 18.8 24.45C18.0667 23.6167 17.15 22.9833 16.05 22.55C14.95 22.1167 13.4667 21.65 11.6 21.15C9.3 20.55 7.45 19.95 6.05 19.35C4.68333 18.75 3.5 17.8167 2.5 16.55C1.53333 15.25 1.05 13.5167 1.05 11.35C1.05 9.45 1.53333 7.76666 2.5 6.3C3.46667 4.83333 4.81667 3.7 6.55 2.9C8.31667 2.1 10.3333 1.7 12.6 1.7C15.8667 1.7 18.5333 2.51667 20.6 4.15C22.7 5.78333 23.8833 7.95 24.15 10.65H19.15C18.9833 9.31667 18.2833 8.15 17.05 7.15C15.8167 6.11667 14.1833 5.6 12.15 5.6C10.25 5.6 8.7 6.1 7.5 7.1C6.3 8.06667 5.7 9.43333 5.7 11.2C5.7 12.4667 6.05 13.5 6.75 14.3C7.48333 15.1 8.36667 15.7167 9.4 16.15C10.4667 16.55 11.95 17.0167 13.85 17.55C16.15 18.1833 18 18.8167 19.4 19.45C20.8 20.05 22 21 23 22.3C24 23.5667 24.5 25.3 24.5 27.5C24.5 29.2 24.05 30.8 23.15 32.3C22.25 33.8 20.9167 35.0167 19.15 35.95C17.3833 36.8833 15.3 37.35 12.9 37.35ZM44.7957 9.1C46.8624 9.1 48.729 9.55 50.3957 10.45C52.0624 11.3167 53.3624 12.6333 54.2957 14.4C55.2624 16.1667 55.7457 18.3167 55.7457 20.85V37H51.2457V21.5C51.2457 18.7667 50.5624 16.6833 49.1957 15.25C47.829 13.7833 45.9624 13.05 43.5957 13.05C41.1957 13.05 39.279 13.8 37.8457 15.3C36.4457 16.8 35.7457 18.9833 35.7457 21.85V37H31.1957V-4.76837e-07H35.7457V13.5C36.6457 12.1 37.879 11.0167 39.4457 10.25C41.0457 9.48333 42.829 9.1 44.7957 9.1ZM75.1281 37.45C72.5615 37.45 70.2281 36.8667 68.1281 35.7C66.0615 34.5333 64.4281 32.8833 63.2281 30.75C62.0615 28.5833 61.4781 26.0833 61.4781 23.25C61.4781 20.45 62.0781 17.9833 63.2781 15.85C64.5115 13.6833 66.1781 12.0333 68.2781 10.9C70.3781 9.73333 72.7281 9.15 75.3281 9.15C77.9281 9.15 80.2781 9.73333 82.3781 10.9C84.4781 12.0333 86.1281 13.6667 87.3281 15.8C88.5615 17.9333 89.1781 20.4167 89.1781 23.25C89.1781 26.0833 88.5448 28.5833 87.2781 30.75C86.0448 32.8833 84.3615 34.5333 82.2281 35.7C80.0948 36.8667 77.7281 37.45 75.1281 37.45ZM75.1281 33.45C76.7615 33.45 78.2948 33.0667 79.7281 32.3C81.1615 31.5333 82.3115 30.3833 83.1781 28.85C84.0781 27.3167 84.5281 25.45 84.5281 23.25C84.5281 21.05 84.0948 19.1833 83.2281 17.65C82.3615 16.1167 81.2281 14.9833 79.8281 14.25C78.4281 13.4833 76.9115 13.1 75.2781 13.1C73.6115 13.1 72.0781 13.4833 70.6781 14.25C69.3115 14.9833 68.2115 16.1167 67.3781 17.65C66.5448 19.1833 66.1281 21.05 66.1281 23.25C66.1281 25.4833 66.5281 27.3667 67.3281 28.9C68.1615 30.4333 69.2615 31.5833 70.6281 32.35C71.9948 33.0833 73.4948 33.45 75.1281 33.45ZM99.7105 14.65C100.611 13.0833 101.944 11.7833 103.711 10.75C105.511 9.68333 107.594 9.15 109.961 9.15C112.394 9.15 114.594 9.73333 116.561 10.9C118.561 12.0667 120.127 13.7167 121.261 15.85C122.394 17.95 122.961 20.4 122.961 23.2C122.961 25.9667 122.394 28.4333 121.261 30.6C120.127 32.7667 118.561 34.45 116.561 35.65C114.594 36.85 112.394 37.45 109.961 37.45C107.627 37.45 105.561 36.9333 103.761 35.9C101.994 34.8333 100.644 33.5167 99.7105 31.95V50H95.1605V9.6H99.7105V14.65ZM118.311 23.2C118.311 21.1333 117.894 19.3333 117.061 17.8C116.227 16.2667 115.094 15.1 113.661 14.3C112.261 13.5 110.711 13.1 109.011 13.1C107.344 13.1 105.794 13.5167 104.361 14.35C102.961 15.15 101.827 16.3333 100.961 17.9C100.127 19.4333 99.7105 21.2167 99.7105 23.25C99.7105 25.3167 100.127 27.1333 100.961 28.7C101.827 30.2333 102.961 31.4167 104.361 32.25C105.794 33.05 107.344 33.45 109.011 33.45C110.711 33.45 112.261 33.05 113.661 32.25C115.094 31.4167 116.227 30.2333 117.061 28.7C117.894 27.1333 118.311 25.3 118.311 23.2ZM147.6 37L131.45 20.45V37H129.2V1.9H131.45V18.6L147.6 1.9H150.5L133.4 19.5L150.55 37H147.6ZM168.062 9.3C171.262 9.3 173.879 10.3 175.912 12.3C177.945 14.2667 178.962 17.2 178.962 21.1V37H176.762V21.25C176.762 18.0167 175.945 15.55 174.312 13.85C172.679 12.1167 170.462 11.25 167.662 11.25C164.729 11.25 162.379 12.1833 160.612 14.05C158.879 15.9167 158.012 18.6833 158.012 22.35V37H155.762V-4.76837e-07H158.012V15.6C158.779 13.5667 160.062 12.0167 161.862 10.95C163.662 9.85 165.729 9.3 168.062 9.3ZM185.514 23.4C185.514 20.6 186.064 18.15 187.164 16.05C188.298 13.95 189.848 12.3333 191.814 11.2C193.814 10.0667 196.081 9.5 198.614 9.5C201.481 9.5 203.914 10.2 205.914 11.6C207.914 13 209.314 14.7833 210.114 16.95V9.85H212.364V37H210.114V29.85C209.314 32.05 207.898 33.8667 205.864 35.3C203.864 36.7 201.448 37.4 198.614 37.4C196.081 37.4 193.814 36.8333 191.814 35.7C189.848 34.5333 188.298 32.9 187.164 30.8C186.064 28.6667 185.514 26.2 185.514 23.4ZM210.114 23.4C210.114 21.0333 209.614 18.95 208.614 17.15C207.648 15.3167 206.314 13.9167 204.614 12.95C202.914 11.95 201.014 11.45 198.914 11.45C196.714 11.45 194.781 11.9333 193.114 12.9C191.448 13.8333 190.148 15.2 189.214 17C188.281 18.8 187.814 20.9333 187.814 23.4C187.814 25.8667 188.281 28 189.214 29.8C190.148 31.6 191.448 32.9833 193.114 33.95C194.814 34.9167 196.748 35.4 198.914 35.4C201.014 35.4 202.914 34.9167 204.614 33.95C206.348 32.95 207.698 31.55 208.664 29.75C209.631 27.9167 210.114 25.8 210.114 23.4ZM232.807 9.3C236.04 9.3 238.674 10.3 240.707 12.3C242.74 14.2667 243.757 17.2 243.757 21.1V37H241.557V21.25C241.557 18.0167 240.74 15.55 239.107 13.85C237.474 12.1167 235.257 11.25 232.457 11.25C229.524 11.25 227.174 12.1833 225.407 14.05C223.674 15.9167 222.807 18.6833 222.807 22.35V37H220.557V9.85H222.807V15.6C223.574 13.5667 224.84 12.0167 226.607 10.95C228.407 9.85 230.474 9.3 232.807 9.3ZM250.309 23.4C250.309 20.6 250.859 18.15 251.959 16.05C253.093 13.95 254.643 12.3333 256.609 11.2C258.609 10.0667 260.876 9.5 263.409 9.5C266.276 9.5 268.709 10.2 270.709 11.6C272.709 13 274.109 14.7833 274.909 16.95V9.85H277.159V37H274.909V29.85C274.109 32.05 272.693 33.8667 270.659 35.3C268.659 36.7 266.243 37.4 263.409 37.4C260.876 37.4 258.609 36.8333 256.609 35.7C254.643 34.5333 253.093 32.9 251.959 30.8C250.859 28.6667 250.309 26.2 250.309 23.4ZM274.909 23.4C274.909 21.0333 274.409 18.95 273.409 17.15C272.443 15.3167 271.109 13.9167 269.409 12.95C267.709 11.95 265.809 11.45 263.709 11.45C261.509 11.45 259.576 11.9333 257.909 12.9C256.243 13.8333 254.943 15.2 254.009 17C253.076 18.8 252.609 20.9333 252.609 23.4C252.609 25.8667 253.076 28 254.009 29.8C254.943 31.6 256.243 32.9833 257.909 33.95C259.609 34.9167 261.543 35.4 263.709 35.4C265.809 35.4 267.709 34.9167 269.409 33.95C271.143 32.95 272.493 31.55 273.459 29.75C274.426 27.9167 274.909 25.8 274.909 23.4Z" fill="black"/>
</svg>
